<svg width="150" height="150" viewBox="0 0 150 150" fill="none" xmlns="http://www.w3.org/2000/svg">
<path d="M67.6696 148.766C67.6601 149.176 67.6482 149.587 67.6338 150C67.6413 149.589 67.6533 149.177 67.6696 148.766C68.8202 99.1475 34.4471 70.2254 1.25851 68.9385C0.840586 68.9293 0.421087 68.9175 1.85266e-05 68.903C0.419277 68.9104 0.8388 68.9222 1.25851 68.9385C50.5818 70.0271 77.9927 34.6434 79.2713 1.27923C79.2805 0.854268 79.2926 0.427855 79.3075 -3.00793e-06C79.2997 0.426024 79.2876 0.852463 79.2713 1.27923C78.1902 50.893 115.384 80.7463 148.637 82.0488C149.051 82.0581 149.466 82.0699 149.883 82.0842C149.468 82.0769 149.053 82.0651 148.637 82.0488C99.2362 80.9374 68.9945 115.409 67.6696 148.766Z" fill="#0003F0"/>
</svg>
