<svg width="121" height="120" viewBox="0 0 121 120" fill="none" xmlns="http://www.w3.org/2000/svg">
<path d="M103.581 119.052C103.845 119.366 104.109 119.681 104.372 120C104.105 119.687 103.841 119.371 103.581 119.052C71.5531 81.1548 26.6573 82.2927 0.965401 103.328C0.646506 103.598 0.3247 103.867 -3.65761e-05 104.136C0.318663 103.863 0.640493 103.594 0.965401 103.328C38.6013 71.4497 35.6624 26.7992 14.5044 0.98136C14.2297 0.657171 13.9561 0.330036 13.6836 -5.51968e-05C13.9602 0.323957 14.2338 0.651117 14.5044 0.98136C46.5811 38.8296 94.2053 36.519 119.955 15.4527C120.271 15.1853 120.59 14.9188 120.911 14.6534C120.596 14.9227 120.277 15.1892 119.955 15.4527C82.2467 47.3653 82.4621 93.2093 103.581 119.052Z" fill="#0003F0"/>
</svg>
