<svg width="64" height="63" viewBox="0 0 64 63" fill="none" xmlns="http://www.w3.org/2000/svg">
<path d="M28.9762 2.69052C29.3598 -0.896828 34.5797 -0.896828 34.9632 2.69052L36.097 13.2955C36.3626 15.7799 39.3642 16.8782 41.1705 15.152L48.8777 7.78628C51.4879 5.29172 55.4766 8.66711 53.4482 11.654L47.5423 20.3509C46.1318 22.4278 47.7337 25.2172 50.2384 25.0457L60.7194 24.3283C64.3251 24.0814 65.2263 29.2356 61.7507 30.2269L51.6975 33.0942C49.2792 33.7839 48.7223 36.959 50.7616 38.4305L59.2414 44.5496C62.171 46.6637 59.5728 51.2021 56.2664 49.7461L46.577 45.4794C44.2852 44.4701 41.8348 46.5372 42.4434 48.9663L45.0185 59.2435C45.8955 62.7438 40.9939 64.543 39.3981 61.3065L34.6699 51.7172C33.5659 49.4782 30.3735 49.4782 29.2696 51.7172L24.5414 61.3065C22.9456 64.5431 18.0439 62.7438 18.921 59.2434L21.496 48.9663C22.1046 46.5372 19.6543 44.4701 17.3625 45.4794L7.67301 49.7461C4.36664 51.2021 1.76844 46.6636 4.69808 44.5496L13.1779 38.4305C15.2172 36.959 14.6603 33.7839 12.242 33.0942L2.18874 30.2269C-1.28685 29.2356 -0.385693 24.0814 3.22005 24.3283L13.701 25.0457C16.2058 25.2172 17.8076 22.4279 16.3972 20.3509L10.4912 11.654C8.46285 8.66713 12.4516 5.29173 15.0618 7.78628L22.769 15.152C24.5752 16.8782 27.5769 15.7799 27.8425 13.2956L28.9762 2.69052Z" fill="#0003F0"/>
</svg>
