<svg width="75" height="74" viewBox="0 0 75 74" fill="none" xmlns="http://www.w3.org/2000/svg">
<path d="M34.7342 3.01739C35.1167 -0.562963 40.3266 -0.562963 40.7091 3.01739L42.2106 17.0706C42.4755 19.5505 45.472 20.6465 47.2745 18.9229L57.4962 9.14794C60.1004 6.6576 64.0822 10.025 62.0587 13.0065L54.1968 24.5908C52.79 26.6637 54.3888 29.4466 56.8881 29.2755L70.8682 28.3179C74.4665 28.0714 75.3663 33.2146 71.8981 34.2044L58.4709 38.0364C56.0582 38.7249 55.5024 41.8925 57.5366 43.3613L68.8533 51.5326C71.7763 53.6432 69.1823 58.1716 65.883 56.7178L52.9946 51.0388C50.7076 50.0311 48.2616 52.0936 48.8687 54.518L52.2862 68.1658C53.161 71.6594 48.2685 73.4542 46.6767 70.2236L40.4167 57.5196C39.3152 55.2843 36.1281 55.2843 35.0266 57.5196L28.7666 70.2236C27.1747 73.4542 22.2823 71.6594 23.1571 68.1658L26.5746 54.518C27.1817 52.0936 24.7357 50.0311 22.4487 51.0388L9.56024 56.7178C6.26099 58.1716 3.66699 53.6432 6.58998 51.5326L17.9067 43.3613C19.9409 41.8925 19.3851 38.7249 16.9724 38.0364L3.54518 34.2044C0.0769975 33.2146 0.976803 28.0714 4.57503 28.3179L18.5552 29.2755C21.0545 29.4466 22.6533 26.6637 21.2465 24.5909L13.3846 13.0065C11.3611 10.025 15.3429 6.65759 17.9471 9.14794L28.1688 18.9229C29.9712 20.6465 32.9677 19.5505 33.2327 17.0706L34.7342 3.01739Z" fill="#0003F0"/>
<path d="M33.3796 5.18194C33.0426 8.26149 32.6855 12.0804 32.3289 15.1248C32.3239 15.1674 32.3189 15.2101 32.3139 15.2528C32.249 15.8071 32.1824 16.366 32.1121 16.9509C32.0515 17.4259 31.8313 17.8636 31.4103 18.1857C31.3141 18.2589 31.2076 18.3248 31.0927 18.3804C30.4946 18.6739 29.6443 18.6752 29.012 18.0411C28.2863 17.3288 27.4805 16.5391 26.5743 15.6524C23.7398 12.8792 21.1189 10.3504 18.8625 8.19062C16.8674 6.09369 13.448 7.05411 12.3729 8.77527C11.0297 10.5047 11.5574 12.7659 12.3179 13.7304C12.6282 14.1792 12.8843 14.5489 13.0809 14.8326C15.2449 17.956 17.4936 21.252 20.231 25.28C20.8263 26.0619 20.5388 27.4109 19.5345 27.8873C19.2685 28.0157 18.9688 28.0754 18.6389 28.0529C18.4683 28.0413 18.2966 28.0295 18.1239 28.0177C17.5517 27.9787 17.0807 27.9068 17.0709 27.857C17.0615 27.8072 17.5172 27.7985 18.0896 27.8376C18.2781 27.8504 18.4652 27.8632 18.651 27.8759C18.9349 27.8949 19.1868 27.8482 19.4143 27.7473C19.4157 27.7467 19.4171 27.746 19.4185 27.7454C20.3511 27.3342 20.6297 26.0889 20.084 25.3798C17.3769 21.3966 15.19 18.1914 13.0881 15.1575C12.8588 14.8267 12.55 14.3809 12.17 13.8308C11.3496 12.7972 10.8464 10.3852 12.2684 8.61811C13.4071 6.8469 16.9526 5.91624 18.9852 8.06234C21.2921 10.2707 23.9702 12.8548 26.8659 15.688C27.7019 16.5059 28.4534 17.2423 29.1357 17.9117C29.7584 18.5403 30.6146 18.4779 31.1603 18.1392C31.2565 18.0804 31.3437 18.0141 31.4211 17.9429C31.4229 17.9413 31.4247 17.9396 31.4266 17.9379C31.7305 17.6535 31.8844 17.3072 31.9339 16.9319C32.0144 16.2638 32.0885 15.6437 32.1604 15.0299C32.1633 15.0045 32.1662 14.9792 32.1692 14.9539C32.5298 11.8753 32.8786 8.12905 33.2054 5.14222C33.2678 4.57204 33.3575 4.11827 33.4056 4.1293C33.4536 4.14065 33.4419 4.61205 33.3796 5.18194ZM47.6143 72.0078C49.7305 73.4113 53.7139 71.1602 52.7578 68.0477C52.4782 66.9178 52.2023 65.7872 51.94 64.7018C51.1088 61.2627 50.3819 58.1438 50.0471 56.6741C49.8817 55.9483 49.7009 55.1832 49.5021 54.3594C49.3441 53.7175 49.4496 52.9835 49.9153 52.3803C50.1284 52.1032 50.4139 51.8608 50.7495 51.6941C51.3276 51.4026 52.0521 51.3572 52.7207 51.6606C53.4938 52.005 54.3031 52.3666 55.1476 52.7461C59.5522 54.725 62.9229 56.2236 65.583 57.3988C67.1177 58.1382 68.9237 57.5766 69.776 56.5976C70.3551 55.985 70.6903 55.2514 70.8122 54.5256C70.8124 54.5244 70.8126 54.5231 70.8128 54.5219C71.0949 52.959 70.2297 51.5761 69.2848 50.9351C68.6614 50.483 68.0914 50.0661 67.5454 49.6608C65.3473 48.0292 63.5538 46.6949 61.4033 45.0653C60.4117 44.3139 59.2709 43.468 58.0856 42.601C56.6449 41.6732 57.2448 39.2107 58.7237 38.9222C59.2666 38.7606 59.782 38.6057 60.2597 38.4605C60.4408 38.4054 60.626 38.349 60.8134 38.292C63.2054 37.5645 66.1507 36.6688 70.5779 35.3642C71.0948 35.2119 71.6026 35.0629 72.1015 34.9171C74.0426 34.4606 75.1579 32.2435 74.7298 30.5743C74.4389 28.8498 72.7676 27.534 71.1964 27.5781C71.0716 27.5753 70.9455 27.5782 70.8182 27.5866C70.0855 27.6343 69.382 27.6796 68.7032 27.7235C66.7471 27.8498 64.9964 27.9628 63.3479 28.0797C60.9487 28.2499 58.7878 28.4006 56.8374 28.5343C54.7134 28.6928 53.8609 26.1188 54.8216 25.0149C56.4008 22.7084 57.6185 20.9472 58.5844 19.563C60.2194 17.22 61.1551 15.9263 61.8302 14.9931C62.0342 14.711 62.2145 14.462 62.383 14.2268C62.545 14.0007 62.7052 13.7764 62.8643 13.5532C64.8557 11.124 62.6677 6.79714 58.9968 7.23596C58.1573 7.34416 57.3474 7.76241 56.7308 8.34752C56.7083 8.36848 56.6858 8.38947 56.6632 8.41051C54.9812 9.97779 53.7467 11.1655 52.7846 12.1029C52.3637 12.513 51.9948 12.8752 51.6469 13.2169C51.6405 13.2232 51.6341 13.2296 51.6277 13.2359C51.5792 13.2835 51.531 13.3307 51.4832 13.3777C51.4472 13.4131 51.4114 13.4485 51.3753 13.4839C51.3616 13.4983 51.3491 13.511 51.3398 13.5206C51.3325 13.5281 51.3268 13.534 51.3231 13.5378C51.3224 13.5385 51.3218 13.5393 51.3211 13.54C51.2543 13.6086 51.1957 13.6664 51.1837 13.6783C51.1627 13.6991 51.144 13.7173 51.1345 13.7266C51.084 13.776 51.0187 13.8391 50.9752 13.8811C50.8634 13.9889 50.6688 14.176 50.3677 14.465C50.1069 14.7179 49.858 14.962 49.5464 15.2677C49.5268 15.2869 49.5072 15.3062 49.4876 15.3255C49.1837 15.6235 48.828 15.9723 48.3805 16.4086C47.9734 16.8056 47.5713 17.1418 47.4825 17.1593C47.3939 17.1766 47.6522 16.8688 48.0593 16.4718C48.4809 16.0607 48.814 15.734 49.118 15.4358C49.1373 15.4169 49.1565 15.398 49.1758 15.379C49.4928 15.0681 49.7931 14.7736 50.1185 14.4582C50.2274 14.3525 50.3399 14.2439 50.4452 14.1425C50.6337 13.9591 50.8474 13.7495 51.103 13.4985C51.1543 13.4481 51.2073 13.3963 51.2614 13.3431C51.6086 13.002 52.013 12.6048 52.4708 12.1588C53.5164 11.1399 54.8428 9.86415 56.6071 8.21821C56.6672 8.1618 56.7285 8.10697 56.7912 8.05384C57.4613 7.47513 58.3684 7.07524 59.2734 7.0296C62.831 6.79947 65.0622 11.1329 63.0153 13.6557C62.7507 14.0282 62.4835 14.4028 62.2124 14.7813C61.9935 15.0869 61.7821 15.379 61.5562 15.6913C60.8866 16.6171 60.087 17.7224 58.5755 19.8885C57.6622 21.1974 56.4963 22.8832 54.9685 25.1146C54.0881 26.1155 54.8531 28.5017 56.8252 28.3572C58.7415 28.2259 60.8691 28.0775 63.2356 27.9096C64.9659 27.7869 66.8333 27.6664 68.8227 27.5379C69.4706 27.496 70.1323 27.4532 70.806 27.4092C70.9543 27.3995 71.0988 27.3969 71.2455 27.4016C72.9023 27.3733 74.6313 28.7915 74.9123 30.5811C75.3425 32.3168 74.1535 34.6211 72.1505 35.0887C71.7282 35.2122 71.2995 35.3381 70.8643 35.4663C66.5359 36.7418 63.6709 37.6129 61.2894 38.3372C61.2071 38.3623 61.1249 38.3873 61.0427 38.4124C60.9405 38.4435 60.8391 38.4743 60.7386 38.5049C60.1339 38.6887 59.4731 38.887 58.7729 39.0947C57.4146 39.3649 56.874 41.6055 58.1896 42.457C59.5075 43.4203 60.7879 44.3694 61.9144 45.2231C63.9704 46.7811 65.6869 48.0583 67.873 49.6809C68.3462 50.0322 68.8362 50.3906 69.3886 50.7913C70.2488 51.3862 71.1906 52.6446 71.0234 54.2822C70.9455 55.082 70.6199 55.9274 69.9703 56.6491C69.0924 57.7152 67.1425 58.3525 65.5114 57.5612C62.8121 56.3687 59.3995 54.8515 54.9528 52.8536C54.1501 52.493 53.3845 52.1508 52.649 51.8232C52.0363 51.546 51.3803 51.5796 50.8369 51.849C50.5197 52.0049 50.2441 52.2374 50.04 52.5096C49.6402 53.0396 49.5237 53.6993 49.6749 54.3161C49.9064 55.2733 50.1249 56.1952 50.3275 57.0845C50.6385 58.4494 51.3416 61.468 52.15 64.813C52.4054 65.8698 52.6682 66.9463 52.9301 68.0046C53.3259 69.3713 52.7459 71.0108 51.6537 71.7876C50.5914 72.602 49.2383 72.7819 48.1589 72.4383C47.8324 72.3366 47.5149 72.1832 47.2283 71.9859C46.6941 71.6209 46.2776 71.1064 45.9969 70.5586C45.1391 68.9115 44.2945 67.3028 43.5589 65.9633C42.3128 63.7867 40.8646 61.0604 39.3246 58.0577C38.7882 56.8277 36.7168 56.7843 36.173 58.0845C34.0802 62.3684 31.8688 66.7909 29.8798 70.7722C28.8573 73.1821 25.4806 73.7237 23.7379 72.4212C23.579 72.3183 23.4261 72.2048 23.2806 72.0808C22.0334 71.082 21.5868 69.2281 21.9871 67.8728C23.3762 62.387 24.5453 57.741 25.4261 54.2304C25.6636 53.3117 25.1511 52.5445 24.5814 52.2161C24.0029 51.8774 23.4631 51.9357 23.1108 52.0519C23.0431 52.0741 22.9836 52.0976 22.9263 52.1228C22.9061 52.1318 22.8863 52.1405 22.867 52.149C22.7741 52.19 22.6901 52.2272 22.616 52.2598C21.5047 52.75 20.5239 53.1891 19.4962 53.6491C19.4401 53.6742 19.3839 53.6994 19.3278 53.7245C18.2419 54.2106 17.1019 54.7203 15.7511 55.3149C13.7044 56.2157 11.8126 57.0501 10.0498 57.8289C6.0595 59.6975 2.65614 54.6729 4.68696 51.7961C5.00681 51.2746 5.42671 50.8566 5.8702 50.5357C6.09838 50.3702 6.3241 50.2065 6.54747 50.0444C6.54908 50.0433 6.55071 50.0421 6.55233 50.0409C8.96546 48.29 11.1061 46.7367 13.141 45.2673C14.6779 44.1575 16.0072 43.1953 17.1751 42.3482C18.196 41.6128 17.9807 40.279 17.424 39.7378C17.1991 39.4998 16.9261 39.3481 16.622 39.2641C16.4698 39.2215 16.3199 39.1797 16.172 39.1384C14.8062 38.7569 13.6133 38.4238 12.3843 38.0756C10.0729 37.4207 7.9434 36.8257 5.84585 36.2394C5.6589 36.1871 5.47222 36.1349 5.28565 36.0827C4.58226 35.8861 3.88099 35.69 3.17749 35.4928C0.887611 35.0296 -0.655423 32.0494 0.275572 29.8105C0.545278 29.0342 1.04675 28.5201 1.0904 28.5416C1.14186 28.5614 0.731544 29.0766 0.463207 29.8144C-0.458453 31.9628 0.974351 34.8571 3.22634 35.3216C3.87038 35.502 4.51626 35.6827 5.16849 35.865C5.35601 35.9174 5.5444 35.97 5.73308 36.0227C7.8254 36.6075 9.99377 37.2138 12.348 37.8807C13.5329 38.2164 14.6597 38.5311 15.9985 38.905C16.2165 38.9659 16.4403 39.0284 16.6709 39.0928C16.9672 39.1749 17.2443 39.3184 17.4825 39.5444C18.151 40.1176 18.4416 41.6522 17.2792 42.4923C16.1161 43.3358 14.7972 44.2905 13.279 45.3868C11.2687 46.8384 9.15533 48.3717 6.7437 50.1216C6.49061 50.3052 6.23419 50.4912 5.97424 50.6798C5.57796 50.9668 5.20342 51.332 4.90728 51.7812C2.83534 54.4902 6.08412 59.4904 9.97816 57.6663C11.7329 56.8911 13.6156 56.0607 15.6506 55.165C16.9269 54.6032 18.0077 54.1201 19.089 53.6361C19.1497 53.6089 19.2104 53.5818 19.2711 53.5547C20.2898 53.0987 21.3252 52.635 22.4991 52.1172C22.5999 52.0728 22.7187 52.0204 22.8547 51.9604C22.9078 51.937 22.9633 51.9149 23.0237 51.894C23.4095 51.7592 24.0124 51.6855 24.6534 52.0526C25.2837 52.4043 25.861 53.2607 25.5982 54.2735C24.7163 57.7886 23.5473 62.4343 22.1593 67.916C21.7697 69.2373 22.2133 71.0212 23.4307 71.9751C23.4692 72.0072 23.5082 72.0386 23.5477 72.0692C25.6556 73.8101 28.9488 72.7008 29.7128 70.6899C31.8826 66.3154 33.3076 63.4234 34.4209 61.0893C34.9818 59.9134 35.4782 58.8819 35.9238 57.9617C36.2559 57.2688 36.8613 56.928 37.4433 56.8486C37.6568 56.8191 37.8639 56.8242 38.0557 56.8546C38.7971 56.9807 39.2695 57.4145 39.5453 57.949C39.5962 58.0498 39.6471 58.1502 39.6982 58.2506C41.038 60.8854 42.0296 62.7597 43.2652 65.01C44.1677 66.6534 45.2044 68.6355 46.1623 70.4771C46.3402 70.8219 46.5642 71.1407 46.8325 71.4138C46.8355 71.4168 46.8384 71.4198 46.8414 71.4228C47.0715 71.6561 47.3365 71.8559 47.6143 72.0078ZM43.3224 17.6394C43.1808 17.3345 43.179 17.0399 43.2101 16.9639C43.2148 16.9452 43.2208 16.9353 43.228 16.9353C43.2346 16.9354 43.2419 16.9438 43.2498 16.9596C43.2971 17.0302 43.3566 17.2984 43.4888 17.5764C43.8284 18.3498 44.8212 18.8208 45.6517 18.6062C45.9981 18.526 46.2612 18.3809 46.2877 18.4244C46.314 18.4634 46.0663 18.6943 45.6796 18.7819C44.7656 19.0094 43.6928 18.4928 43.3224 17.6394ZM46.7328 69.5487C46.8245 69.7269 46.9114 69.9071 46.9858 70.0713C47.107 70.3425 47.2264 70.5413 47.2467 70.6187C47.2829 70.729 47.0573 70.5576 46.8359 70.1451C46.8177 70.1107 46.7991 70.0751 46.7802 70.0384C46.6448 69.7755 46.4213 69.3435 46.1207 68.7623C45.0396 66.6727 42.9572 62.6475 40.3497 57.5526C39.5188 55.5771 36.1229 55.3861 35.1763 57.5934C33.3994 61.3145 31.4662 65.336 29.4798 69.4229C29.3247 69.742 29.1744 70.0512 29.0281 70.3525C28.6572 71.1314 28.0108 71.7464 27.2552 72.0228C25.0299 72.8993 22.0494 70.9206 22.7795 68.0713C23.3508 65.6478 24.0478 62.7375 25.0778 58.6345C25.4315 57.2259 25.7854 55.8174 26.1397 54.4091C26.7449 52.4768 24.4383 50.5215 22.6258 51.4408C18.3261 53.3269 14.0258 55.2106 9.72553 57.093C8.21894 57.8536 6.16244 57.1439 5.39557 55.66C4.51043 54.2426 4.94947 52.1211 6.36318 51.2185C10.1429 48.5043 13.9225 45.7907 17.701 43.0764C19.4828 41.9456 18.9502 38.8319 16.8802 38.3593C12.4068 37.0721 7.93334 35.7868 3.45954 34.5045C1.85516 34.136 0.762185 32.3389 1.10685 30.7443C1.32653 29.1275 2.965 27.8128 4.59594 28.0126C9.25643 28.3327 13.9167 28.6488 18.5768 28.9596C20.6969 29.2199 22.267 26.4587 20.9715 24.7775C19.5668 22.7209 18.1609 20.6654 16.7535 18.611C15.5227 16.8145 14.2942 15.0183 13.0673 13.2218C12.0485 11.8915 12.3617 9.75123 13.6761 8.72384C14.9028 7.5938 17.0721 7.63084 18.2248 8.85747C21.634 12.109 25.0403 15.3648 28.4509 18.6278C28.6533 18.8215 28.8825 18.9828 29.131 19.1025C30.4012 19.8222 32.6794 18.9539 32.8375 17.0284C33.3405 12.4484 33.9208 7.24195 34.3964 2.9813C34.5377 0.906853 36.6595 -0.209088 38.0791 0.0325514C39.5814 0.180054 40.4626 1.24037 40.7266 1.90073C40.9868 2.48893 40.9657 2.99634 40.9217 2.99462C40.8674 2.98945 40.8055 2.50358 40.5556 1.9532C40.3018 1.3349 39.4759 0.34576 38.0507 0.208038C36.6987 -0.0120399 34.7113 1.02992 34.5728 3.00015C34.0971 7.262 33.5162 12.4731 33.0139 17.0473C32.8459 19.0666 30.4923 20.0092 29.1278 19.2967C28.8336 19.1659 28.5631 18.9812 28.3282 18.7561C24.9175 15.493 21.5112 12.2373 18.102 8.98591C16.9979 7.81781 14.9644 7.78582 13.7909 8.85957C12.5408 9.84389 12.2453 11.8493 13.2145 13.1219C14.4135 14.8775 15.6141 16.6329 16.8169 18.3886C18.2521 20.4834 19.6869 22.5792 21.1213 24.6758C22.5043 26.471 20.8341 29.4204 18.5639 29.1477C13.9042 28.8435 9.24315 28.5367 4.58121 28.2276C3.04031 28.0485 1.53948 29.2647 1.33007 30.7832C1.0173 32.2843 2.02051 33.9278 3.52499 34.2751C8.00209 35.5449 12.4795 36.8168 16.957 38.0904C19.2456 38.6066 19.8542 42.0493 17.8767 43.3197C14.1062 46.0455 10.3346 48.7704 6.56238 51.4944C5.2778 52.3298 4.90286 54.1941 5.70078 55.4853C6.41071 56.8269 8.20869 57.4471 9.57957 56.7617C13.8764 54.8695 18.1734 52.9781 22.4701 51.0874C24.5572 50.0296 27.2119 52.2726 26.5196 54.5042C26.1622 55.9279 25.8048 57.3515 25.4475 58.775C24.4137 62.8925 23.6711 65.7567 23.0537 68.1399C22.3357 70.6268 24.8729 72.5847 27.0049 71.9194C27.7881 71.6935 28.4832 71.0868 28.8683 70.2737C28.9909 70.0214 29.1164 69.7631 29.2453 69.4979C31.261 65.3509 33.2204 61.2736 35.015 57.5139C36.0297 55.1622 39.6345 55.3805 40.5121 57.4726C42.9944 62.321 44.9811 66.1612 46.0464 68.2206C46.3566 68.8203 46.5895 69.2706 46.7328 69.5487ZM49.5272 51.4086C50.379 50.5681 51.8591 50.2076 53.1069 50.7842C56.9969 52.4971 61.5286 54.5043 65.9871 56.4817C67.7094 57.3837 69.8056 55.8876 69.875 54.0954C69.9572 53.1478 69.468 52.2502 68.7157 51.7232C66.5082 50.1205 64.4718 48.6427 62.7497 47.3955C60.5866 45.8289 58.9099 44.5977 57.4332 43.5046C56.3585 42.7277 55.9575 41.3836 56.2367 40.2499C56.2438 40.2194 56.2514 40.1891 56.2594 40.159C56.5239 39.1325 57.3432 38.2472 58.4483 37.9572C60.3023 37.4525 62.4031 36.8719 65.1786 36.0842C67.1315 35.5298 69.4143 34.8741 71.8856 34.1606C73.2474 33.8393 74.2476 32.3715 73.9884 30.9077C73.8231 29.4401 72.4003 28.2125 70.8738 28.3988C70.3829 28.4347 69.8909 28.4707 69.3985 28.5066C69.3935 28.507 69.3885 28.5073 69.3836 28.5077C65.0669 28.8231 60.7109 29.1831 56.9021 29.4792C54.9151 29.6807 53.3672 27.8523 53.4428 26.2484C53.4459 25.6033 53.6583 24.9754 54.0097 24.4638C57.03 20.0321 59.6589 16.1964 61.9204 12.9126C62.9444 11.5523 62.3552 9.67649 61.1563 8.91741C59.9772 8.06939 58.4052 8.34381 57.5563 9.21079C55.501 11.1306 53.8711 12.6414 52.6362 13.7785C50.8675 15.4071 49.0536 17.115 47.2156 18.8613C45.6573 20.5264 42.4262 19.3828 42.3015 17.0609C41.8049 12.4076 41.3131 7.73455 40.9433 3.29168C40.8838 2.29391 41.197 3.95409 41.3539 5.78834C41.3599 5.85454 41.3659 5.92075 41.3718 5.98695C41.429 6.61746 41.4796 7.16912 41.5558 7.94544C41.6704 9.06992 41.7594 9.9063 41.8407 10.6696C41.9224 11.437 42.1861 13.9516 42.5048 17.0392C42.535 19.054 45.5618 20.3551 47.092 18.732C49.3673 16.5826 51.5075 14.5714 52.8132 13.3693C53.9595 12.3137 55.4721 10.8813 57.396 9.04313C58.2685 8.12093 59.9921 7.77005 61.2889 8.67238C62.6054 9.45523 63.3203 11.5716 62.1886 13.0946C59.9728 16.3725 57.3692 20.221 54.3339 24.6839C54.0148 25.1495 53.8294 25.7147 53.8356 26.2949C53.795 27.6827 55.1128 29.2851 56.8788 29.1395C60.6191 28.9119 64.9134 28.6558 69.2368 28.3399C69.2543 28.3386 69.2717 28.3373 69.2892 28.3361C69.8133 28.2978 70.3378 28.2595 70.8616 28.2212C72.4564 28.0213 73.9894 29.3245 74.1628 30.8701C74.4476 32.4094 73.3742 33.9977 71.9344 34.3317C69.4772 35.041 67.1954 35.6963 65.2331 36.2533C62.4768 37.0357 60.3531 37.6233 58.4974 38.1291C57.3238 38.4359 56.5279 39.437 56.3681 40.5127C56.3638 40.5395 56.36 40.5663 56.3564 40.5931C56.2165 41.6088 56.6333 42.7019 57.5378 43.3597C59.0151 44.4542 60.6723 45.672 62.8487 47.2481C64.5871 48.5071 66.623 49.9844 68.8197 51.5791C69.6461 52.1522 70.1792 53.1819 70.0409 54.229C69.8973 56.087 67.6924 57.5741 65.9154 56.6443C61.4484 54.6629 56.9197 52.6569 53.0353 50.9466C51.8858 50.417 50.5311 50.7209 49.7186 51.4737C49.2733 51.8654 49.0113 52.3078 48.9544 52.308C48.9002 52.3151 49.0689 51.8417 49.5272 51.4086ZM48.909 50.4768C50.1156 49.3725 52.0645 49.0542 53.565 49.7445C57.8765 51.5971 62.1857 53.467 66.486 55.3493C67.9856 56.2361 69.4958 53.584 67.9753 52.7486C64.1982 50.0133 60.4357 47.2716 56.6931 44.5295C53.7237 42.5797 54.6841 37.4611 58.0906 36.7037C60.2848 36.0997 62.4752 35.4996 64.6607 34.9034C66.6541 34.3376 69.0004 33.6726 71.5409 32.9529C72.4162 32.7147 72.8859 32.014 72.769 31.0778C72.6246 30.1458 71.9494 29.5209 70.9559 29.5978C70.4445 29.6318 69.9323 29.6657 69.4201 29.6997C69.3473 29.7045 69.2745 29.7093 69.2017 29.714C64.9371 29.9969 60.6851 30.279 56.9738 30.5261C54.2688 30.7611 52.2563 28.2405 52.4302 26.1074C52.4593 25.3019 52.7391 24.5193 53.1688 23.8932C56.1835 19.4659 58.8032 15.6226 61.056 12.326C61.7233 11.3887 61.3622 10.3537 60.5637 9.80139C59.7564 9.26198 58.9223 9.4042 58.3051 9.99376C56.213 11.9669 54.5577 13.5152 53.3049 14.6688C50.247 17.4844 49.1458 18.5241 47.9681 19.6481C47.7566 19.8499 47.5215 20.0338 47.2549 20.195C47.1938 20.2319 47.132 20.2669 47.0696 20.3001C47.0656 20.3024 47.0615 20.3047 47.0575 20.307C46.9804 20.3504 46.9118 20.3845 46.8772 20.4012C46.806 20.4356 46.7476 20.4604 46.725 20.4699C46.6734 20.4917 46.6297 20.5084 46.6142 20.5143C46.5506 20.5386 46.4777 20.5637 46.4295 20.579C46.0052 20.7686 44.4798 20.9189 43.4589 20.3547C42.4165 19.8276 41.8659 19.0988 41.5312 18.2929C41.4984 18.2109 41.4681 18.1273 41.4405 18.0422C41.3528 17.7712 41.2914 17.4834 41.2617 17.172C41.2231 16.7496 41.179 16.2716 41.1229 15.6781C41.0693 15.1112 41.071 14.7041 41.1267 14.7685C41.1824 14.8334 41.2709 15.3448 41.3245 15.9114C41.3694 16.3861 41.4071 16.7924 41.4403 17.1529C41.4857 17.6285 41.6074 18.0379 41.7704 18.3938C41.8053 18.4701 41.8434 18.5462 41.8838 18.6204C42.2777 19.3183 42.8007 19.8644 43.7016 20.2702C45.0323 20.8233 46.2235 20.5727 47.0666 20.0991C47.3573 19.9348 47.615 19.7393 47.8452 19.5197C49.0727 18.3485 50.3135 17.1771 53.481 14.2607C54.6469 13.1871 56.2001 11.7346 58.1823 9.86536C58.8281 9.23851 59.7742 9.06179 60.6481 9.64409C61.5174 10.2216 61.9376 11.4048 61.2028 12.4256C58.969 15.6945 56.352 19.5337 53.3156 23.9928C52.9045 24.5919 52.6374 25.3372 52.6078 26.1061C52.4367 28.1526 54.3664 30.5754 56.9617 30.3491C60.6777 30.1016 64.9325 29.8194 69.1941 29.5367C69.2689 29.5317 69.3437 29.5268 69.4185 29.5218C69.9272 29.488 70.436 29.4543 70.9438 29.4206C72.0163 29.3292 72.799 30.044 72.9449 31.0534C73.0808 32.0659 72.5338 32.8748 71.5897 33.1236C69.0498 33.843 66.7056 34.5074 64.7152 35.0724C62.5237 35.6944 60.3384 36.3165 58.1576 36.9386C54.9331 37.6843 54.1004 42.4982 56.8695 44.2853C60.6483 47.0103 64.4195 49.7272 68.1914 52.4494C69.0356 53.0377 69.2153 54.0212 68.7209 54.8982C68.2148 55.7686 67.2749 56.1118 66.3406 55.6794C62.0635 53.7882 57.7774 51.8847 53.4711 49.9575C52.0968 49.3097 50.2996 49.5446 49.1241 50.5277C47.8471 51.5387 47.3011 53.341 47.7076 54.8087C48.2051 56.7832 48.6743 58.6498 49.1205 60.4252C49.8477 63.3185 50.5142 65.9701 51.143 68.4521C51.4258 69.4948 50.8545 70.3446 49.9183 70.6586C48.978 70.9565 48.1175 70.5995 47.6831 69.7277C47.1293 68.6354 46.583 67.5658 46.0383 66.5081C45.4286 65.3243 43.868 62.2026 41.6164 57.6897C41.5162 57.489 41.4146 57.2853 41.3115 57.0786C40.6048 55.5199 38.5582 54.4474 36.6509 55.0096C35.6124 55.2863 34.6467 56.0675 34.1606 57.0929C32.5319 60.4387 30.6835 64.2368 28.6519 68.4166C28.4127 68.9086 28.1851 69.3773 27.9657 69.829C27.7648 70.2445 27.4938 70.5497 27.1718 70.7502C25.8369 71.6342 23.4145 70.4176 23.9801 68.3719C24.5474 66.0781 25.2343 63.3213 26.1872 59.5258C26.5563 58.0554 26.9628 56.4392 27.3949 54.7234C28.2945 52.0032 25.0102 48.8414 22.1031 50.2547C17.8453 52.121 13.3468 54.0903 9.20134 55.9033C8.07746 56.4323 6.91232 55.8672 6.44641 54.8619C5.96612 53.8545 6.31383 52.8274 7.12674 52.276C7.77353 51.8123 8.38752 51.3722 8.96323 50.9597C12.7287 48.2618 14.8579 46.7437 16.3654 45.6713C16.7852 45.3727 17.1545 45.1104 17.4933 44.8696C17.8471 44.6181 18.1693 44.3891 18.486 44.1637C19.1027 43.7214 19.6264 43.1055 19.9275 42.2656C20.7442 40.0511 19.3033 37.5673 17.2502 37.0631C12.8414 35.7986 8.85441 34.6735 3.81493 33.2592C2.96039 33.0314 2.36193 32.3721 2.32765 31.4188C2.3114 31.0134 2.46614 30.6808 2.51992 30.6729C2.57817 30.6617 2.50945 30.9427 2.50476 31.3135C2.50055 32.2394 3.03498 32.8636 3.8638 33.0879C8.8639 34.4913 12.8666 35.6211 17.2989 36.8923C19.4654 37.4233 20.9742 40.0668 20.0706 42.3918C19.7538 43.2337 19.2104 43.8643 18.5901 44.3079C18.2218 44.5701 17.8533 44.832 17.452 45.1171C17.1181 45.3545 16.7614 45.6079 16.3633 45.8911C14.8808 46.9457 12.7739 48.4478 9.02819 51.1316C8.46414 51.5358 7.86324 51.9665 7.2307 52.42C6.4745 52.9407 6.16773 53.845 6.60597 54.7839C7.04709 55.7169 8.08001 56.2273 9.12975 55.7408C13.2746 53.928 17.7741 51.9583 22.0315 50.0922C25.0746 48.6144 28.5069 51.9217 27.5672 54.7666C27.1373 56.4738 26.7329 58.0816 26.3657 59.5443C25.405 63.3709 24.719 66.124 24.1525 68.4151C23.6414 70.2256 25.7264 71.3526 26.9776 70.6567C27.3116 70.4786 27.5949 70.1863 27.8059 69.7502C28.0017 69.347 28.2046 68.9293 28.4167 68.4929C30.4787 64.2507 32.3541 60.3971 34.0008 57.0141C34.4781 56.0108 35.3981 55.2216 36.4075 54.8977C38.4519 54.1849 40.7151 55.3194 41.4714 56.9999C41.55 57.1575 41.6278 57.3133 41.7046 57.4674C44.0016 62.0713 45.4686 65.0042 45.9909 66.0184C46.6034 67.2078 47.2189 68.414 47.8441 69.6483C48.2558 70.4579 49.0038 70.757 49.8725 70.4862C50.7339 70.1823 51.2228 69.4521 50.9706 68.4953C50.3284 65.9601 49.6522 63.2698 48.9221 60.3651C48.481 58.6102 48.0202 56.7767 47.5353 54.8519C47.1239 53.3612 47.6526 51.5339 48.909 50.4768ZM18.1008 18.1659C18.4243 18.638 18.6718 19.07 18.6541 19.1311C18.6363 19.192 18.36 18.8592 18.0365 18.3871C16.328 15.8933 15.0986 14.1013 14.1375 12.7005C14.1053 12.6534 14.0733 12.6068 14.0416 12.5606C12.8061 10.552 14.53 8.98873 16.0395 9.0581C16.5418 9.09297 17.0134 9.32369 17.4123 9.70716C21.0021 13.1438 24.4633 16.4558 27.6302 19.486C27.7585 19.6087 27.8931 19.7215 28.0357 19.8252C30.4005 21.628 33.904 19.7222 34.0096 17.1537C34.6052 11.5986 35.0849 7.13631 35.3793 4.44572C35.4417 3.8754 35.5313 3.42177 35.5794 3.4328C35.6274 3.44436 35.6158 3.91555 35.5534 4.48544C35.26 7.16678 34.7815 11.6182 34.186 17.1725C34.071 19.8171 30.5211 21.8173 28.0265 20.0357C27.8417 19.9094 27.6693 19.7689 27.5076 19.6142C24.3454 16.5885 20.8856 13.2781 17.2895 9.83552C16.9184 9.47953 16.4952 9.2729 16.0447 9.23663C14.701 9.16301 13.0685 10.5227 14.155 12.4102C14.1659 12.4269 14.1772 12.4437 14.1889 12.4606C15.1428 13.851 16.3744 15.646 18.1008 18.1659Z" fill="#0003F0"/>
</svg>
