<svg width="200" height="400" viewBox="0 0 200 400" fill="none" xmlns="http://www.w3.org/2000/svg">
<path d="M97.9202 298.361C97.9499 298.905 97.9765 299.451 98 300C97.9676 299.454 97.941 298.908 97.9202 298.361C94.3273 232.483 45.7894 197.697 1.67156 199.415C1.11673 199.446 0.559542 199.473 0 199.497C0.556414 199.464 1.11363 199.437 1.67156 199.415C67.1524 195.77 99.8306 146.049 98.0839 101.699C98.0524 101.135 98.0244 100.569 98 100C98.0336 100.565 98.0616 101.132 98.0839 101.699C101.768 167.564 154.141 203.293 198.345 201.589C198.895 201.559 199.446 201.532 200 201.508C199.45 201.541 198.898 201.568 198.345 201.589C132.76 205.211 96.2356 254.016 97.9202 298.361Z" fill="#0003F0"/>
<circle cx="100" cy="100" r="99.5" stroke="#0003F0"/>
<circle cx="100" cy="300" r="99.5" stroke="#0003F0"/>
<circle cx="100" cy="200" r="99.5" stroke="#0003F0"/>
</svg>
