<svg width="200" height="200" viewBox="0 0 200 200" fill="none" xmlns="http://www.w3.org/2000/svg">
<path d="M97.9202 198.361C97.9499 198.905 97.9765 199.451 98 200C97.9676 199.454 97.941 198.908 97.9202 198.361C94.3273 132.483 45.7894 97.6972 1.67156 99.4148C1.11673 99.4457 0.559542 99.4733 0 99.4975C0.556414 99.4641 1.11363 99.4365 1.67156 99.4148C67.1524 95.7702 99.8306 46.0488 98.0839 1.69911C98.0524 1.13495 98.0244 0.568577 98 0C98.0336 0.565419 98.0616 1.13182 98.0839 1.69911C101.768 67.564 154.141 103.293 198.345 101.589C198.895 101.559 199.446 101.532 200 101.508C199.45 101.541 198.898 101.568 198.345 101.589C132.76 105.211 96.2356 154.016 97.9202 198.361Z" fill="#0003F0"/>
</svg>
